<svg width="24" height="24" viewBox="0 0 24 24" xmlns="http://www.w3.org/2000/svg">
<path d="M7 13.75C7 13.3854 7.11719 13.0859 7.35156 12.8516C7.58594 12.6172 7.88542 12.5 8.25 12.5C8.61458 12.5 8.91406 12.6172 9.14844 12.8516C9.38281 13.0859 9.5 13.3854 9.5 13.75C9.5 14.1146 9.38281 14.4141 9.14844 14.6484C8.91406 14.8828 8.61458 15 8.25 15C7.88542 15 7.58594 14.8828 7.35156 14.6484C7.11719 14.4141 7 14.1146 7 13.75ZM15.75 16.25C16.1146 16.25 16.4141 16.3672 16.6484 16.6016C16.8828 16.8359 17 17.1354 17 17.5C17 17.8646 16.8828 18.1641 16.6484 18.3984C16.4141 18.6328 16.1146 18.75 15.75 18.75C15.3854 18.75 15.0859 18.6328 14.8516 18.3984C14.6172 18.1641 14.5 17.8646 14.5 17.5C14.5 17.1354 14.6172 16.8359 14.8516 16.6016C15.0859 16.3672 15.3854 16.25 15.75 16.25ZM10.75 13.75C10.8021 13.1771 11.1146 12.8646 11.6875 12.8125H16.0625C16.6354 12.8646 16.9479 13.1771 17 13.75C16.9479 14.3229 16.6354 14.6354 16.0625 14.6875H11.6875C11.1146 14.6354 10.8021 14.3229 10.75 13.75ZM12.3125 16.5625C12.8854 16.6146 13.1979 16.9271 13.25 17.5C13.1979 18.0729 12.8854 18.3854 12.3125 18.4375H7.9375C7.36458 18.3854 7.05208 18.0729 7 17.5C7.05208 16.9271 7.36458 16.6146 7.9375 16.5625H12.3125ZM9.1875 5H14.8125V3.4375C14.8646 2.86458 15.1771 2.55208 15.75 2.5C16.3229 2.55208 16.6354 2.86458 16.6875 3.4375V5H18.25C18.9531 5.02604 19.5391 5.27344 20.0078 5.74219C20.4766 6.21094 20.724 6.79688 20.75 7.5V20C20.724 20.7031 20.4766 21.2891 20.0078 21.7578C19.5391 22.2266 18.9531 22.474 18.25 22.5H5.75C5.04688 22.474 4.46094 22.2266 3.99219 21.7578C3.52344 21.2891 3.27604 20.7031 3.25 20V7.5C3.27604 6.79688 3.52344 6.21094 3.99219 5.74219C4.46094 5.27344 5.04688 5.02604 5.75 5H7.3125V3.4375C7.36458 2.86458 7.67708 2.55208 8.25 2.5C8.82292 2.55208 9.13542 2.86458 9.1875 3.4375V5ZM5.125 20C5.15104 20.3906 5.35938 20.599 5.75 20.625H18.25C18.6406 20.599 18.849 20.3906 18.875 20V10H5.125V20Z" />
</svg>
