<svg width="24" height="24" viewBox="0 0 24 24" xmlns="http://www.w3.org/2000/svg">
<path d="M17.2812 5.28125C17.4896 5.09375 17.7292 5 18 5C18.2708 5 18.5104 5.09375 18.7188 5.28125C18.9062 5.48958 19 5.72917 19 6C19 6.27083 18.9062 6.51042 18.7188 6.71875L13.4062 11.9688L18.7188 17.2812C18.9062 17.4896 19 17.7292 19 18C19 18.2708 18.9062 18.5104 18.7188 18.7188C18.5104 18.9062 18.2708 19 18 19C17.7292 19 17.4896 18.9062 17.2812 18.7188L11.9688 13.4062L6.71875 18.7188C6.51042 18.9062 6.27083 19 6 19C5.72917 19 5.48958 18.9062 5.28125 18.7188C5.09375 18.5104 5 18.2708 5 18C5 17.7292 5.09375 17.4896 5.28125 17.2812L10.5938 11.9688L5.28125 6.71875C5.09375 6.51042 5 6.27083 5 6C5 5.72917 5.09375 5.48958 5.28125 5.28125C5.48958 5.09375 5.72917 5 6 5C6.27083 5 6.51042 5.09375 6.71875 5.28125L11.9688 10.5938L17.2812 5.28125Z"/>
</svg>
