<svg width="24" height="24" viewBox="0 0 24 24" xmlns="http://www.w3.org/2000/svg">
<path d="M10.125 3.32031C8.27604 3.71094 6.6875 4.55729 5.35938 5.85938C4.05729 7.1875 3.21094 8.77604 2.82031 10.625C2.48177 12.474 2.61198 14.1927 3.21094 15.7812C3.8099 17.3698 4.76042 18.6979 6.0625 19.7656C7.36458 20.8333 8.875 21.4974 10.5938 21.7578C10.9844 21.8099 11.3099 21.7057 11.5703 21.4453C11.8568 21.2109 12 20.8984 12 20.5078C11.9479 19.8307 11.5964 19.4271 10.9453 19.2969C9.27865 18.9844 7.89844 18.2161 6.80469 16.9922C5.71094 15.7422 5.15104 14.2318 5.125 12.4609C5.17708 10.4036 5.91927 8.71094 7.35156 7.38281C8.8099 6.08073 10.5807 5.49479 12.6641 5.625C14.487 5.85938 15.9714 6.64062 17.1172 7.96875C18.263 9.32292 18.849 10.9245 18.875 12.7734V13.3984C18.875 13.8411 18.7188 14.2188 18.4062 14.5312C18.1198 14.8177 17.7552 14.9609 17.3125 14.9609C16.8698 14.9609 16.5052 14.8177 16.2188 14.5312C15.9062 14.2188 15.75 13.8411 15.75 13.3984V8.71094C15.724 8.34635 15.5156 8.13802 15.125 8.08594H13.875C13.5625 8.11198 13.3672 8.26823 13.2891 8.55469C12.2995 8.03385 11.1797 7.96875 9.92969 8.35938C9.14844 8.64583 8.51042 9.08854 8.01562 9.6875C7.49479 10.3125 7.16927 11.0286 7.03906 11.8359C6.90885 13.2422 7.26042 14.4141 8.09375 15.3516C8.92708 16.3151 10.0208 16.8099 11.375 16.8359C12.4167 16.8099 13.3281 16.4974 14.1094 15.8984C14.5781 16.4974 15.1901 16.9401 15.9453 17.2266C16.6745 17.513 17.4818 17.5521 18.3672 17.3438C19.2786 17.1094 20.0078 16.6146 20.5547 15.8594C21.0755 15.1042 21.3359 14.2578 21.3359 13.3203V12.5C21.3099 10.5469 20.7891 8.80208 19.7734 7.26562C18.7318 5.75521 17.3646 4.6224 15.6719 3.86719C14.0052 3.13802 12.1562 2.95573 10.125 3.32031ZM11.3359 14.375C10.8151 14.375 10.3724 14.1927 10.0078 13.8281C9.66927 13.4896 9.48698 13.0469 9.46094 12.5C9.48698 11.9792 9.66927 11.5365 10.0078 11.1719C10.3724 10.8333 10.8151 10.651 11.3359 10.625C11.8568 10.651 12.2995 10.8333 12.6641 11.1719C13.0286 11.5365 13.2109 11.9792 13.2109 12.5C13.2109 13.0469 13.0286 13.4896 12.6641 13.8281C12.3255 14.1927 11.8828 14.375 11.3359 14.375Z" />
</svg>
