<svg width="32" height="32" viewBox="0 0 32 32" xmlns="http://www.w3.org/2000/svg">
<path d="M25.75 8.5H16.75L13.75 5.5H6.25C5.625 5.53125 5.09375 5.75 4.65625 6.15625C4.25 6.59375 4.03125 7.125 4 7.75V24.25C4.03125 24.875 4.25 25.4062 4.65625 25.8438C5.09375 26.25 5.625 26.4688 6.25 26.5H25.75C26.375 26.4688 26.9062 26.25 27.3438 25.8438C27.75 25.4062 27.9688 24.875 28 24.25V10.75C27.9688 10.125 27.75 9.59375 27.3438 9.15625C26.9062 8.75 26.375 8.53125 25.75 8.5ZM16 13C16.8438 13.0312 17.5469 13.3281 18.1094 13.8906C18.6719 14.4531 18.9688 15.1562 19 16C18.9688 16.8438 18.6719 17.5469 18.1094 18.1094C17.5469 18.6719 16.8438 18.9688 16 19C15.1562 18.9688 14.4531 18.6719 13.8906 18.1094C13.3281 17.5469 13.0312 16.8438 13 16C13.0312 15.1562 13.3281 14.4531 13.8906 13.8906C14.4531 13.3281 15.1562 13.0312 16 13ZM20.5 23.5H11.5C11.0312 23.4688 10.7812 23.2188 10.75 22.75C10.7812 22.125 11 21.5938 11.4062 21.1562C11.8438 20.75 12.375 20.5312 13 20.5H19C19.625 20.5312 20.1562 20.75 20.5938 21.1562C21 21.5938 21.2188 22.125 21.25 22.75C21.2188 23.2188 20.9688 23.4688 20.5 23.5Z"/>
</svg>
