<svg width="48" height="48" viewBox="0 0 48 48" xmlns="http://www.w3.org/2000/svg">
<path d="M40.25 21.5C39.2083 21.5521 38.3229 21.9167 37.5938 22.5938C36.9167 23.2708 36.5521 24.1302 36.5 25.1719V30.0938C36.4479 30.8229 36.0312 31.2135 35.25 31.2656H31.5V11.8906C31.4479 9.85938 30.7708 8.08854 29.4688 6.57812C28.1667 5.06771 26.474 4.20833 24.3906 4C22.3073 3.94792 20.4583 4.625 18.8438 6.03125C17.3333 7.54167 16.5521 9.36458 16.5 11.5V21.4219L12.75 21.5C11.9688 21.3958 11.5521 21.0052 11.5 20.3281V15.25C11.4479 14.2083 11.0833 13.349 10.4062 12.6719C9.67708 11.9427 8.79167 11.5781 7.75 11.5781C6.70833 11.5781 5.82292 11.9427 5.09375 12.6719C4.41667 13.349 4.05208 14.2083 4 15.25V20.1719C4.05208 22.6719 4.91146 24.7292 6.57812 26.3438C8.19271 27.9583 10.25 28.7917 12.75 28.8438H16.5V41.2656C16.5 42.099 16.7344 42.75 17.2031 43.2188C17.6719 43.7396 18.2708 44 19 44H29C29.7292 44 30.3281 43.7656 30.7969 43.2969C31.2656 42.8281 31.5 42.2552 31.5 41.5781V39.1562H35.25C37.75 39.1042 39.8073 38.2448 41.4219 36.5781C43.0885 34.9635 43.9479 32.9323 44 30.4844V25.25C43.9479 24.2083 43.5833 23.3229 42.9062 22.5938C42.1771 21.9167 41.2917 21.5521 40.25 21.5ZM21.5 17.75C20.7188 17.6458 20.3021 17.2552 20.25 16.5781C20.3021 15.7969 20.7188 15.3542 21.5 15.25C22.2812 15.3021 22.6979 15.7188 22.75 16.5C22.6979 17.2812 22.2812 17.6979 21.5 17.75ZM26.5 35.25C25.7188 35.1458 25.3021 34.7552 25.25 34.0781C25.3021 33.349 25.7188 32.9583 26.5 32.9062C27.2812 32.9583 27.6979 33.349 27.75 34.0781C27.6979 34.7552 27.2812 35.1458 26.5 35.25Z" />
</svg>
