<svg width="24" height="24" viewBox="0 0 24 24" xmlns="http://www.w3.org/2000/svg">
<path d="M18.9688 12C18.9688 12.2917 18.875 12.5312 18.6875 12.7188C18.5208 12.9062 18.2917 13 18 13H8.40625L11.7188 16.2812C11.9062 16.4896 12 16.7292 12 17C12 17.2708 11.9062 17.5104 11.7188 17.7188C11.5104 17.9062 11.2708 18 11 18C10.7292 18 10.4896 17.9062 10.2812 17.7188L5.28125 12.7188C5.09375 12.5104 5 12.2708 5 12C5 11.7292 5.09375 11.4896 5.28125 11.2812L10.2812 6.28125C10.4896 6.09375 10.7292 6 11 6C11.2708 6 11.5104 6.09375 11.7188 6.28125C11.9062 6.48958 12 6.72917 12 7C12 7.27083 11.9062 7.51042 11.7188 7.71875L8.40625 11H18C18.2917 11 18.5208 11.0938 18.6875 11.2812C18.875 11.4688 18.9688 11.7083 18.9688 12Z" />
</svg>
