<svg width="32" height="32" viewBox="0 0 32 32" xmlns="http://www.w3.org/2000/svg">
<path d="M29.5 16C29.4688 16.4062 29.3125 16.75 29.0312 17.0312C28.75 17.3125 28.4062 17.4688 28 17.5H26.5L26.5469 25C26.5156 25.125 26.5 25.25 26.5 25.375V26.125C26.5 26.6562 26.3125 27.0938 25.9375 27.4375C25.5938 27.8125 25.1562 28 24.625 28H23.875C23.8438 28 23.8281 28 23.8281 28C23.7969 27.9688 23.7656 27.9688 23.7344 28C23.6719 27.9688 23.625 27.9688 23.5938 28C23.5625 28 23.5469 28 23.5469 28H20.875C20.3438 28 19.9062 27.8125 19.5625 27.4375C19.1875 27.0938 19 26.6562 19 26.125V22C19 21.5625 18.8594 21.2031 18.5781 20.9219C18.2969 20.6406 17.9375 20.5 17.5 20.5H14.5C14.0625 20.5 13.7031 20.6406 13.4219 20.9219C13.1406 21.2031 13 21.5625 13 22V26.125C13 26.6562 12.8125 27.0938 12.4375 27.4375C12.0938 27.8125 11.6562 28 11.125 28H8.5C8.4375 28 8.375 28 8.3125 28C8.25 28 8.1875 28 8.125 28H7.375C6.84375 28 6.40625 27.8125 6.0625 27.4375C5.6875 27.0938 5.5 26.6562 5.5 26.125V20.875C5.5 20.8438 5.5 20.7969 5.5 20.7344V17.5H4C3.5625 17.4688 3.20312 17.3125 2.92188 17.0312C2.64062 16.75 2.5 16.4062 2.5 16C2.5 15.5625 2.65625 15.1875 2.96875 14.875L14.9688 4.375C15.3125 4.09375 15.6562 3.96875 16 4C16.375 4 16.7188 4.10937 17.0312 4.32812L28.9844 14.875C29.3594 15.1875 29.5312 15.5625 29.5 16Z" />
</svg>
