<svg width="24" height="24" viewBox="0 0 24 24" xmlns="http://www.w3.org/2000/svg">
<path d="M9 17H7C6.70833 17 6.46875 16.9062 6.28125 16.7188C6.09375 16.5312 6 16.2917 6 16V8C6 7.70833 6.09375 7.46875 6.28125 7.28125C6.46875 7.09375 6.70833 7 7 7H9C9.29167 7 9.53125 6.90625 9.71875 6.71875C9.90625 6.53125 10 6.29167 10 6C10 5.70833 9.90625 5.46875 9.71875 5.28125C9.53125 5.09375 9.29167 5 9 5H7C6.14583 5.02083 5.4375 5.3125 4.875 5.875C4.3125 6.4375 4.02083 7.14583 4 8V16C4.02083 16.8542 4.3125 17.5625 4.875 18.125C5.4375 18.6875 6.14583 18.9792 7 19H9C9.29167 19 9.53125 18.9062 9.71875 18.7188C9.90625 18.5312 10 18.2917 10 18C10 17.7083 9.90625 17.4688 9.71875 17.2812C9.53125 17.0938 9.29167 17 9 17ZM19.7188 11.2812L15.7188 7.28125C15.5104 7.09375 15.2708 7 15 7C14.7292 7 14.4896 7.09375 14.2812 7.28125C14.0938 7.48958 14 7.72917 14 8C14 8.27083 14.0938 8.51042 14.2812 8.71875L16.5938 11H10C9.70833 11 9.46875 11.0938 9.28125 11.2812C9.09375 11.4688 9 11.7083 9 12C9 12.2917 9.09375 12.5312 9.28125 12.7188C9.46875 12.9062 9.70833 13 10 13H16.5938L14.2812 15.2812C14.0938 15.4896 14 15.7292 14 16C14 16.2708 14.0938 16.5104 14.2812 16.7188C14.4896 16.9062 14.7292 17 15 17C15.2708 17 15.5104 16.9062 15.7188 16.7188L19.7188 12.7188C19.9062 12.5104 20 12.2708 20 12C20 11.7292 19.9062 11.4896 19.7188 11.2812Z" />
</svg>
