<svg width="24" height="24" viewBox="0 0 24 24" xmlns="http://www.w3.org/2000/svg">
<path d="M10.25 17.875C10.013 17.875 9.80339 17.793 9.62109 17.6289C9.45703 17.4466 9.375 17.237 9.375 17C9.375 16.763 9.45703 16.5534 9.62109 16.3711L14.2695 11.75L9.62109 7.12891C9.45703 6.94661 9.375 6.73698 9.375 6.5C9.375 6.26302 9.45703 6.05339 9.62109 5.87109C9.80339 5.70703 10.013 5.625 10.25 5.625C10.487 5.625 10.6966 5.70703 10.8789 5.87109L16.1289 11.1211C16.293 11.3034 16.375 11.513 16.375 11.75C16.375 11.987 16.293 12.1966 16.1289 12.3789L10.8789 17.6289C10.6966 17.793 10.487 17.875 10.25 17.875Z" />
</svg>
