<svg width="24" height="24" viewBox="0 0 24 24" xmlns="http://www.w3.org/2000/svg">
<path d="M13.0156 15.9375L11.6875 17.1875C11.5312 17.3958 11.3229 17.5 11.0625 17.5H9.5V19.0625C9.44792 19.6354 9.13542 19.9479 8.5625 20H7V21.5625C6.94792 22.1354 6.63542 22.4479 6.0625 22.5H2.9375C2.36458 22.4479 2.05208 22.1354 2 21.5625V18.4375C2 18.1771 2.09115 17.9557 2.27344 17.7734L8.5625 11.4844C8.35417 10.8073 8.25 10.1042 8.25 9.375C8.30208 7.42188 8.97917 5.80729 10.2812 4.53125C11.5573 3.22917 13.1719 2.55208 15.125 2.5C17.0781 2.55208 18.6927 3.22917 19.9688 4.53125C21.2708 5.80729 21.9479 7.42188 22 9.375C21.9479 11.3281 21.2708 12.9427 19.9688 14.2188C18.6927 15.5208 17.0781 16.1979 15.125 16.25C14.3958 16.25 13.6927 16.1458 13.0156 15.9375ZM16.6875 9.375C17.1302 9.375 17.4948 9.21875 17.7812 8.90625C18.0938 8.61979 18.25 8.25521 18.25 7.8125C18.25 7.36979 18.0938 7.00521 17.7812 6.71875C17.4948 6.40625 17.1302 6.25 16.6875 6.25C16.2448 6.25 15.8802 6.40625 15.5938 6.71875C15.2812 7.00521 15.125 7.36979 15.125 7.8125C15.125 8.25521 15.2812 8.61979 15.5938 8.90625C15.8802 9.21875 16.2448 9.375 16.6875 9.375Z" />
</svg>
