<svg width="32" height="32" viewBox="0 0 32 32" xmlns="http://www.w3.org/2000/svg">
<path d="M9.57812 7H16.375V5.125C16.4375 4.4375 16.8125 4.0625 17.5 4C18.1875 4.0625 18.5625 4.4375 18.625 5.125V7H20.5C21.3438 7.03125 22.0469 7.32812 22.6094 7.89062C23.1719 8.45312 23.4688 9.15625 23.5 10V13H4.70312V25C4.76562 25.4688 5.01562 25.7188 5.45312 25.75H15.8594C16.4219 26.625 17.1406 27.375 18.0156 28H5.5C4.65625 27.9688 3.95312 27.6719 3.39062 27.1094C2.82812 26.5469 2.53125 25.8438 2.5 25V10C2.53125 9.15625 2.82812 8.45312 3.39062 7.89062C3.95312 7.32812 4.65625 7.03125 5.5 7H7.375V5.125C7.4375 4.4375 7.8125 4.0625 8.5 4C9.1875 4.0625 9.5625 4.4375 9.625 5.125L9.57812 7ZM29.5 21.25C29.4375 23.1562 28.7812 24.75 27.5312 26.0312C26.25 27.2812 24.6562 27.9375 22.75 28C20.8438 27.9375 19.25 27.2812 17.9688 26.0312C16.6875 24.75 16.0156 23.1562 15.9531 21.25C16.0156 19.3438 16.6875 17.75 17.9688 16.4688C19.25 15.2188 20.8438 14.5625 22.75 14.5C24.6562 14.5625 26.25 15.2188 27.5312 16.4688C28.7812 17.75 29.4375 19.3438 29.5 21.25ZM22 18.2031V20.4531H19.75C19.2812 20.5156 19.0312 20.7656 19 21.2031C19.0312 21.6719 19.2812 21.9219 19.75 21.9531H22V24.2031C22.0312 24.6719 22.2812 24.9219 22.75 24.9531C23.2188 24.9219 23.4688 24.6719 23.5 24.2031V21.9531H25.75C26.2188 21.9219 26.4688 21.6719 26.5 21.2031C26.4688 20.7656 26.2188 20.5156 25.75 20.4531H23.5V18.2031C23.4688 17.7656 23.2188 17.5156 22.75 17.4531C22.2812 17.5156 22.0312 17.7656 22 18.2031Z" />
</svg>
