<svg width="24" height="24" viewBox="0 0 24 24" xmlns="http://www.w3.org/2000/svg">
<path d="M16.7188 15.2812C16.9062 15.4896 17 15.7292 17 16C17 16.2708 16.9062 16.5104 16.7188 16.7188C16.5104 16.9062 16.2708 17 16 17C15.7292 17 15.4896 16.9062 15.2812 16.7188L12 13.4062L8.71875 16.7188C8.51042 16.9062 8.27083 17 8 17C7.72917 17 7.48958 16.9062 7.28125 16.7188C7.09375 16.5104 7 16.2708 7 16C7 15.7292 7.09375 15.4896 7.28125 15.2812L10.5938 12L7.28125 8.71875C7.09375 8.51042 7 8.27083 7 8C7 7.72917 7.09375 7.48958 7.28125 7.28125C7.48958 7.09375 7.72917 7 8 7C8.27083 7 8.51042 7.09375 8.71875 7.28125L12 10.5938L15.2812 7.28125C15.4896 7.09375 15.7292 7 16 7C16.2708 7 16.5104 7.09375 16.7188 7.28125C16.9062 7.48958 17 7.72917 17 8C17 8.27083 16.9062 8.51042 16.7188 8.71875L13.4062 12L16.7188 15.2812Z" />
</svg>
