<svg width="24" height="24" viewBox="0 0 24 24" xmlns="http://www.w3.org/2000/svg">
<path d="M23.25 12.5C23.224 12.8385 23.0938 13.125 22.8594 13.3594C22.625 13.5938 22.3385 13.724 22 13.75H20.75L20.7891 20C20.763 20.7031 20.5156 21.2891 20.0469 21.7578C19.5781 22.2266 18.9922 22.474 18.2891 22.5H5.75C5.04688 22.474 4.46094 22.2266 3.99219 21.7578C3.52344 21.2891 3.27604 20.7031 3.25 20V13.75H2C1.63542 13.724 1.33594 13.5938 1.10156 13.3594C0.867188 13.125 0.75 12.8385 0.75 12.5C0.75 12.1354 0.880208 11.8229 1.14062 11.5625L11.1406 2.8125C11.4271 2.57812 11.7135 2.47396 12 2.5C12.3125 2.5 12.599 2.59115 12.8594 2.77344L22.8203 11.5625C23.1328 11.8229 23.276 12.1354 23.25 12.5ZM12 8.75C11.2969 8.77604 10.7109 9.02344 10.2422 9.49219C9.77344 9.96094 9.52604 10.5469 9.5 11.25C9.52604 11.9531 9.77344 12.5391 10.2422 13.0078C10.7109 13.4766 11.2969 13.724 12 13.75C12.7031 13.724 13.2891 13.4766 13.7578 13.0078C14.2266 12.5391 14.474 11.9531 14.5 11.25C14.474 10.5469 14.2266 9.96094 13.7578 9.49219C13.2891 9.02344 12.7031 8.77604 12 8.75ZM10.75 15C9.86458 15.026 9.1224 15.3255 8.52344 15.8984C7.95052 16.4974 7.65104 17.2396 7.625 18.125C7.65104 18.5156 7.85938 18.724 8.25 18.75H15.75C16.1406 18.724 16.349 18.5156 16.375 18.125C16.349 17.2396 16.0495 16.4974 15.4766 15.8984C14.8776 15.3255 14.1354 15.026 13.25 15H10.75Z" />
</svg>
