<svg width="24" height="24" viewBox="0 0 24 24" xmlns="http://www.w3.org/2000/svg">
<path d="M22 12.5C21.974 14.375 21.5182 16.0547 20.6328 17.5391C19.7474 19.0495 18.5495 20.2474 17.0391 21.1328C15.5547 22.0182 13.875 22.474 12 22.5C10.125 22.474 8.44531 22.0182 6.96094 21.1328C5.45052 20.2474 4.2526 19.0495 3.36719 17.5391C2.48177 16.0547 2.02604 14.375 2 12.5C2.02604 10.625 2.48177 8.94531 3.36719 7.46094C4.2526 5.95052 5.45052 4.7526 6.96094 3.86719C8.44531 2.98177 10.125 2.52604 12 2.5C14.2135 2.52604 16.1667 3.16406 17.8594 4.41406C19.526 5.63802 20.7109 7.23958 21.4141 9.21875C20.8672 9.0625 20.3333 9.19271 19.8125 9.60938L13.9531 15.3125C13.3802 15.1042 12.7292 15 12 15C10.9323 15.026 10.0208 15.2474 9.26562 15.6641C8.51042 16.0807 7.91146 16.5625 7.46875 17.1094C7.23438 17.3958 7.26042 17.6823 7.54688 17.9688C7.83333 18.2031 8.11979 18.1901 8.40625 17.9297C8.77083 17.487 9.23958 17.0964 9.8125 16.7578C10.4115 16.4453 11.1406 16.276 12 16.25C12.8333 16.276 13.5495 16.4453 14.1484 16.7578C14.7474 17.0964 15.2292 17.487 15.5938 17.9297C15.8802 18.1901 16.1797 18.2031 16.4922 17.9688C16.7005 17.7604 16.7396 17.526 16.6094 17.2656L17 16.9141L16.0625 15.9766C15.8542 15.7422 15.8542 15.5208 16.0625 15.3125C16.2708 15.1042 16.4922 15.1042 16.7266 15.3125L17.7031 16.2891L18.2891 15.7031L17.3125 14.7266C17.1042 14.4922 17.1042 14.2708 17.3125 14.0625C17.5208 13.8542 17.7422 13.8542 17.9766 14.0625L18.9531 15.0391L19.5781 14.4922L18.5625 13.4766C18.3542 13.2422 18.3542 13.0208 18.5625 12.8125C18.7708 12.6042 18.9922 12.6042 19.2266 12.8125L20.2422 13.8281L20.8281 13.2422L19.8125 12.2266C19.6042 11.9922 19.6042 11.7708 19.8125 11.5625C20.0208 11.3542 20.2422 11.3542 20.4766 11.5625L21.4922 12.5781L22 12.1094C22 12.2396 22 12.3568 22 12.4609V12.5ZM8.875 9.375C8.53646 9.375 8.25 9.49219 8.01562 9.72656C7.78125 9.96094 7.65104 10.2604 7.625 10.625C7.65104 10.9896 7.78125 11.2891 8.01562 11.5234C8.25 11.7578 8.53646 11.875 8.875 11.875C9.23958 11.875 9.53906 11.7578 9.77344 11.5234C10.0078 11.2891 10.125 10.9896 10.125 10.625C10.125 10.2604 10.0078 9.96094 9.77344 9.72656C9.53906 9.49219 9.23958 9.375 8.875 9.375ZM15.125 11.875C15.4896 11.875 15.7891 11.7578 16.0234 11.5234C16.2578 11.2891 16.375 10.9896 16.375 10.625C16.375 10.2604 16.2578 9.96094 16.0234 9.72656C15.7891 9.49219 15.4896 9.375 15.125 9.375C14.7865 9.375 14.5 9.49219 14.2656 9.72656C14.0312 9.96094 13.901 10.2604 13.875 10.625C13.901 10.9896 14.0312 11.2891 14.2656 11.5234C14.5 11.7578 14.7865 11.875 15.125 11.875Z"/>
</svg>
