<svg width="24" height="24" viewBox="0 0 24 24" xmlns="http://www.w3.org/2000/svg">
<path d="M9.5 3.75V5H14.5V3.75C14.5 3.38542 14.6172 3.08594 14.8516 2.85156C15.0859 2.61719 15.3854 2.5 15.75 2.5C16.1146 2.5 16.4141 2.61719 16.6484 2.85156C16.8828 3.08594 17 3.38542 17 3.75V5H18.875C19.3958 5.02604 19.8385 5.20833 20.2031 5.54688C20.5417 5.91146 20.724 6.35417 20.75 6.875V8.75H3.25V6.875C3.27604 6.35417 3.45833 5.91146 3.79688 5.54688C4.16146 5.20833 4.60417 5.02604 5.125 5H7V3.75C7 3.38542 7.11719 3.08594 7.35156 2.85156C7.58594 2.61719 7.88542 2.5 8.25 2.5C8.61458 2.5 8.91406 2.61719 9.14844 2.85156C9.38281 3.08594 9.5 3.38542 9.5 3.75ZM3.25 10H20.75V20.625C20.724 21.1458 20.5417 21.5885 20.2031 21.9531C19.8385 22.2917 19.3958 22.474 18.875 22.5H5.125C4.60417 22.474 4.16146 22.2917 3.79688 21.9531C3.45833 21.5885 3.27604 21.1458 3.25 20.625V10ZM6.375 12.5C5.98438 12.526 5.77604 12.7344 5.75 13.125V16.875C5.77604 17.2656 5.98438 17.474 6.375 17.5H10.125C10.5156 17.474 10.724 17.2656 10.75 16.875V13.125C10.724 12.7344 10.5156 12.526 10.125 12.5H6.375Z" />
</svg>
