<svg width="24" height="24" viewBox="0 0 24 24" xmlns="http://www.w3.org/2000/svg">
<path d="M4.5 3.75C4.5 3.38542 4.61719 3.08594 4.85156 2.85156C5.08594 2.61719 5.38542 2.5 5.75 2.5C6.11458 2.5 6.41406 2.61719 6.64844 2.85156C6.88281 3.08594 7 3.38542 7 3.75V5H12V3.75C12 3.38542 12.1172 3.08594 12.3516 2.85156C12.5859 2.61719 12.8854 2.5 13.25 2.5C13.6146 2.5 13.9141 2.61719 14.1484 2.85156C14.3828 3.08594 14.5 3.38542 14.5 3.75V5H16.375C16.8958 5.02604 17.3385 5.20833 17.7031 5.54688C18.0417 5.91146 18.224 6.35417 18.25 6.875V8.75H0.75V6.875C0.776042 6.35417 0.958333 5.91146 1.29688 5.54688C1.66146 5.20833 2.10417 5.02604 2.625 5H4.5V3.75ZM18.25 10.0391C18.0417 10.013 17.8333 10 17.625 10C15.6719 10.0521 14.0573 10.7292 12.7812 12.0312C11.4792 13.3073 10.8021 14.9219 10.75 16.875C10.75 18.0469 11.0104 19.1146 11.5312 20.0781C12.0521 21.0677 12.7682 21.875 13.6797 22.5H2.625C2.10417 22.474 1.66146 22.2917 1.29688 21.9531C0.958333 21.5885 0.776042 21.1458 0.75 20.625V10H17.625H18.25V10.0391ZM23.25 16.875C23.1979 18.4635 22.651 19.7917 21.6094 20.8594C20.5417 21.901 19.2135 22.4479 17.625 22.5C16.0365 22.4479 14.7083 21.901 13.6406 20.8594C12.599 19.7917 12.0521 18.4635 12 16.875C12.0521 15.2865 12.599 13.9583 13.6406 12.8906C14.7083 11.849 16.0365 11.3021 17.625 11.25C19.2135 11.3021 20.5417 11.849 21.6094 12.8906C22.651 13.9583 23.1979 15.2865 23.25 16.875ZM16.9609 14.375V16.875C17.013 17.2656 17.2214 17.474 17.5859 17.5H19.5C19.8906 17.474 20.099 17.2656 20.125 16.875C20.099 16.4844 19.8906 16.276 19.5 16.25H18.2109V14.375C18.1849 13.9844 17.9766 13.776 17.5859 13.75C17.2214 13.776 17.013 13.9844 16.9609 14.375Z" />
</svg>
