<svg width="24" height="24" viewBox="0 0 24 24" xmlns="http://www.w3.org/2000/svg">
<path d="M23.25 9.25781C23.276 9.70052 23.0417 9.94792 22.5469 10H20.3984L19.5 8.125L18.5234 10H13.25C13.5885 11.1719 13.9141 12.7995 14.2266 14.8828C14.513 16.9922 14.5391 19.1797 14.3047 21.4453C14.2786 21.7578 14.1484 22.0052 13.9141 22.1875C13.6797 22.3958 13.4062 22.5 13.0938 22.5H10.9453C10.5286 22.474 10.2031 22.3177 9.96875 22.0312C9.73438 21.7188 9.66927 21.3542 9.77344 20.9375C10.0599 19.7917 10.3333 18.2552 10.5938 16.3281C10.8542 14.4271 10.9062 12.4219 10.75 10.3125L5.04688 16.0156C4.89062 16.1719 4.70833 16.25 4.5 16.25C4.29167 16.25 4.1224 16.1589 3.99219 15.9766C3.3151 14.9349 3.09375 13.724 3.32812 12.3438C3.58854 10.9896 4.27865 9.72656 5.39844 8.55469C5.45052 8.5026 5.5026 8.45052 5.55469 8.39844C5.65885 8.34635 5.75 8.28125 5.82812 8.20312L4.5 5.58594L3.5625 7.5L1.45312 7.46094C0.958333 7.40885 0.723958 7.16146 0.75 6.71875C1.01042 5.49479 1.71354 4.49219 2.85938 3.71094C4.00521 2.92969 5.3724 2.52604 6.96094 2.5C8.44531 2.52604 9.72135 2.8776 10.7891 3.55469C11.8828 4.23177 12.625 5.11719 13.0156 6.21094C14.1094 5.42969 15.4375 5.02604 17 5C18.6146 5 19.9948 5.40365 21.1406 6.21094C22.2865 7.01823 22.9896 8.03385 23.25 9.25781Z" />
</svg>
